<svg xmlns="http://www.w3.org/2000/svg" version="1.1" xmlns:xlink="http://www.w3.org/1999/xlink" xmlns:svgjs="http://svgjs.dev/svgjs" width="2000" height="727" viewBox="0 0 2000 727"><g transform="matrix(1,0,0,1,-1.212122743638588,1.1454573944631647)"><svg viewBox="0 0 396 144" data-background-color="#ffffff" preserveAspectRatio="xMidYMid meet" height="727" width="2000" xmlns="http://www.w3.org/2000/svg" xmlns:xlink="http://www.w3.org/1999/xlink"><g id="tight-bounds" transform="matrix(1,0,0,1,0.24000176273511897,-0.22688564622103513)"><svg viewBox="0 0 395.52 144.45377129244207" height="144.45377129244207" width="395.52"><g><svg viewBox="0 0 395.52 144.45377129244207" height="144.45377129244207" width="395.52"><g><svg viewBox="0 0 395.52 144.45377129244207" height="144.45377129244207" width="395.52"><g id="textblocktransform"><svg viewBox="0 0 395.52 144.45377129244207" height="144.45377129244207" width="395.52" id="textblock"><g><svg viewBox="0 0 395.52 88.51090224969447" height="88.51090224969447" width="395.52"><g transform="matrix(1,0,0,1,0,0)"><svg width="395.52" viewBox="3.2696990814879996 -39.84 232.130300918512 51.95" height="88.51090224969447" data-palette-color="#434853"><path d="M24.98-20.26L24.98-20.26Q24.88-19.92 24.61-19.3 24.34-18.68 23.99-17.9 23.63-17.11 23.23-16.22 22.83-15.33 22.44-14.43L22.44-14.43Q22.29-14.09 22.17-13.93 22.05-13.77 21.78-13.7 21.51-13.62 21.03-13.61 20.56-13.6 19.7-13.57L19.7-13.57 16.31-13.5 15.63-6.03 28.15-6.03 28.15-5.08Q28.1-5.03 27.73-4.43 27.37-3.83 26.88-3 26.39-2.17 25.85-1.33 25.32-0.49 24.95 0.02L24.95 0.02Q24.71 0.46 24.39 0.72 24.07 0.98 23.69 1.1 23.32 1.22 22.86 1.25 22.41 1.27 21.88 1.27L21.88 1.27Q19.68 1.27 17.3 1.17 14.92 1.07 12.55 0.93 10.18 0.78 7.92 0.6 5.66 0.42 3.74 0.22L3.74 0.22Q3.56 0.2 3.43 0.02 3.3-0.15 3.3-0.37L3.3-0.37Q3.2-0.37 3.43-0.78 3.66-1.2 4.08-1.86 4.49-2.51 4.99-3.36 5.49-4.2 5.96-5.05L5.96-5.05 6.35-10.55Q6.45-11.94 6.51-12.62 6.57-13.31 6.57-13.35L6.57-13.35Q5.1-13.38 4.38-13.5 3.66-13.62 3.66-14.04L3.66-14.04Q3.66-14.23 4.02-14.77 4.37-15.31 4.88-16 5.4-16.7 5.97-17.46 6.54-18.21 6.98-18.85L6.98-18.85 7.59-27.15 7.52-27.15Q6.98-27.12 6.54-27.11 6.1-27.1 5.74-27.1L5.74-27.1Q4.57-27.1 4.06-27.23 3.56-27.37 3.56-27.73L3.56-27.73Q3.56-27.91 3.86-28.44 4.15-28.98 4.59-29.68 5.03-30.37 5.52-31.14 6.01-31.91 6.4-32.57L6.4-32.57 7.86-35.06 18.07-35.06 30.1-35.94Q30.13-35.94 30.24-35.93 30.35-35.91 30.47-35.85 30.59-35.79 30.7-35.64 30.81-35.5 30.81-35.23L30.81-35.23 30.44-33.96Q30.27-33.42 30.03-32.82 29.79-32.23 29.49-31.59L29.49-31.59 28.42-28.76Q28.25-28.34 28.03-28.13 27.81-27.91 27.1-27.88L27.1-27.88Q25.24-27.83 22.96-27.72 20.68-27.61 17.72-27.51L17.72-27.51Q17.63-27.17 17.63-26.97 17.63-26.76 17.58-26.17L17.58-26.17 17.46-25.05Q17.41-24.27 17.31-23.36 17.21-22.46 17.07-21.14L17.07-21.14Q18.31-21.19 19.49-21.24 20.68-21.29 21.66-21.33 22.63-21.36 23.35-21.39 24.07-21.41 24.37-21.41L24.37-21.41Q24.56-21.41 24.8-21.26 25.05-21.12 25.05-20.7L25.05-20.7Q25.05-20.51 24.98-20.26ZM52.59-27.44L51.07-19.87Q50.56-19.92 49.92-19.98 49.29-20.04 48.58-20.04L48.58-20.04Q47.51-20.04 46.4-19.86 45.29-19.68 44.33-19.14 43.38-18.6 42.7-17.66 42.01-16.72 41.82-15.23L41.82-15.23Q41.65-13.43 41.54-12.27 41.43-11.11 41.38-10.36 41.33-9.62 41.29-9.17 41.26-8.72 41.23-8.33L41.23-8.33Q41.23-8.23 41.2-7.79 41.16-7.35 41.09-6.76 41.01-6.18 40.95-5.49 40.89-4.81 40.82-4.22 40.74-3.64 40.71-3.2 40.67-2.76 40.67-2.66L40.67-2.66Q40.67-2.47 40.68-2.33 40.7-2.2 40.7-2.08L40.7-2.08Q40.7-1.88 40.51-1.75 40.33-1.61 39.69-1.44L39.69-1.44 33.23 0.88Q32.96 0.98 32.52 1.12 32.08 1.27 31.66 1.27L31.66 1.27Q31.32 1.27 31.06 1.1 30.81 0.93 30.81 0.51L30.81 0.51 32.91-23.68Q32.98-24.49 33.09-24.79 33.2-25.1 33.64-25.2L33.64-25.2Q35.86-25.63 38.23-26.09 40.6-26.54 42.82-27.25L42.82-27.25Q43.02-27.25 43.05-27.19 43.09-27.12 43.09-27L43.09-27Q43.09-26.95 43.08-26.86 43.06-26.76 43-26.42 42.94-26.07 42.83-25.38 42.72-24.68 42.53-23.44L42.53-23.44Q43.65-24.32 45-25.05 46.36-25.78 47.73-26.31 49.09-26.83 50.36-27.14 51.63-27.44 52.59-27.44L52.59-27.44ZM53.8-10.35L53.8-10.35Q54.12-13.7 54.44-16.97 54.76-20.24 55-23.68L55-23.68Q55.05-24.49 55.16-24.79 55.27-25.1 55.71-25.2L55.71-25.2Q57.78-25.61 60.05-26.06 62.32-26.51 64.45-27.22L64.45-27.22Q64.52-27.25 64.67-27.25L64.67-27.25Q64.94-27.25 64.94-27.05L64.94-27.05 62.74-3.27Q62.67-2.47 62.57-2.16 62.47-1.86 62.03-1.76L62.03-1.76Q59.96-1.12 57.83-0.34 55.71 0.44 53.34 1.25L53.34 1.25Q53.27 1.27 53.12 1.27L53.12 1.27Q52.85 1.27 52.85 1.03L52.85 1.03Q52.85 1 52.9 0.37 52.95-0.27 53.03-1.27 53.12-2.27 53.22-3.52 53.32-4.76 53.43-6.01 53.54-7.25 53.63-8.4 53.73-9.55 53.8-10.35ZM55.63-29.83L55.63-29.83Q55.71-30.88 55.74-31.45 55.78-32.01 55.81-32.29 55.83-32.57 55.83-32.64 55.83-32.71 55.84-32.75 55.85-32.79 55.87-32.9 55.88-33.01 55.9-33.36 55.93-33.72 55.98-34.4 56.03-35.08 56.12-36.28L56.12-36.28Q56.17-37.08 56.28-37.39 56.39-37.7 56.83-37.79L56.83-37.79Q58.91-38.21 61.18-38.66 63.45-39.11 65.57-39.82L65.57-39.82Q65.64-39.84 65.79-39.84L65.79-39.84Q65.86-39.7 65.99-39.65L65.99-39.65 66.06-39.6 65.52-32.91Q65.45-32.1 65.34-31.79 65.23-31.47 64.81-31.4L64.81-31.4Q62.74-31.01 60.62-30.54 58.49-30.08 56.12-29.61L56.12-29.61Q56.05-29.59 55.9-29.59L55.9-29.59Q55.63-29.59 55.63-29.83ZM81.27-37.06L81.27-37.06 80.39-28.59Q80.22-26.88 80.03-25.12 79.85-23.36 79.68-21.75 79.51-20.14 79.36-18.77 79.22-17.41 79.12-16.53L79.12-16.53 80.8-18.38 83.54-21.58Q84.05-22.17 84.54-22.75 85.03-23.34 85.42-23.79 85.81-24.24 86.05-24.55 86.3-24.85 86.35-24.9L86.35-24.9 96.16-25.59Q96.23-25.61 96.32-25.61 96.4-25.61 96.48-25.61L96.48-25.61Q96.89-25.61 96.89-25.39L96.89-25.39Q96.89-25.22 96.38-24.63L96.38-24.63 88.74-16.09Q88.22-15.53 87.53-14.78 86.83-14.04 85.98-13.13L85.98-13.13 89.54-8.89 95.7-2.27Q95.77-2.15 95.92-2.09 96.06-2.03 96.2-1.98 96.33-1.93 96.44-1.87 96.55-1.81 96.55-1.68L96.55-1.68Q96.55-1.59 96.51-1.54 96.48-1.49 96.28-1.34L96.28-1.34Q96.06-1.17 95.51-0.85 94.96-0.54 94.23-0.15 93.5 0.24 92.67 0.65 91.84 1.05 91.06 1.38 90.28 1.71 89.62 1.92 88.96 2.12 88.59 2.12L88.59 2.12Q88.3 2.12 88.02 1.98 87.74 1.83 87.39 1.44L87.39 1.44Q86.93 0.9 86.24 0.04 85.54-0.83 84.73-1.87 83.93-2.91 83.09-4.02 82.24-5.13 81.47-6.14 80.71-7.15 80.08-7.97 79.46-8.79 79.12-9.28L79.12-9.28Q79-9.16 78.87-9.09 78.75-9.03 78.64-8.94 78.53-8.84 78.46-8.7 78.39-8.57 78.39-8.33L78.39-8.33Q78.39-8.23 78.34-7.78 78.29-7.32 78.23-6.7 78.17-6.08 78.09-5.37 78.02-4.66 77.96-4.04 77.9-3.42 77.85-2.97 77.8-2.51 77.8-2.42L77.8-2.42Q77.8-2.25 77.81-2.14 77.82-2.03 77.82-1.93L77.82-1.93Q77.82-1.66 77.64-1.53 77.46-1.39 76.75-1.2L76.75-1.2 70.35 0.88Q70.09 0.98 69.65 1.12 69.21 1.27 68.79 1.27L68.79 1.27Q68.45 1.27 68.19 1.1 67.94 0.93 67.94 0.46L67.94 0.46 71.01-34.72Q71.01-34.84 70.99-34.95 70.96-35.06 70.96-35.18L70.96-35.18Q70.96-35.4 71.15-35.58 71.33-35.77 71.99-35.94L71.99-35.94 78.85-37.57Q79.12-37.62 79.56-37.79 80-37.96 80.41-37.96L80.41-37.96Q80.73-37.96 81.01-37.82 81.29-37.67 81.29-37.26L81.29-37.26Q81.29-37.21 81.28-37.16 81.27-37.11 81.27-37.06ZM110.9-0.37L110.49-9.08Q110.49-9.11 110.47-9.13 110.46-9.16 110.46-9.18L110.46-9.18Q110.46-9.59 110.9-9.59L110.9-9.59Q111.12-9.59 111.39-9.38L111.39-9.38Q112.71-8.13 114.32-7.4 115.93-6.67 117.83-6.67L117.83-6.67Q118.35-6.67 119.01-6.77 119.67-6.88 120.25-7.14 120.84-7.4 121.24-7.81 121.64-8.23 121.64-8.86L121.64-8.86Q121.64-9.57 121.3-10.13 120.96-10.69 120.4-11.08L120.4-11.08Q120.18-11.23 119.74-11.57 119.3-11.91 118.74-12.35 118.18-12.79 117.57-13.29 116.96-13.79 116.41-14.25 115.86-14.7 115.42-15.06 114.98-15.43 114.76-15.63L114.76-15.63Q113.32-16.7 112.48-17.8 111.63-18.9 111.19-20.09 110.75-21.29 110.63-22.57 110.51-23.85 110.51-25.29L110.51-25.29Q110.51-27.44 111.54-29.37 112.56-31.3 114.43-32.73 116.3-34.16 118.91-35 121.52-35.84 124.72-35.84L124.72-35.84Q125.11-35.84 125.89-35.75 126.67-35.67 127.61-35.47 128.55-35.28 129.53-34.94 130.51-34.59 131.31-34.06L131.31-34.06Q131.58-33.86 131.74-33.67 131.9-33.47 131.95-33.06L131.95-33.06Q132.07-31.08 132.14-29.16 132.21-27.25 132.34-25.1L132.34-25.1Q132.34-24.68 132.17-24.55 131.99-24.41 131.73-24.41L131.73-24.41Q131.46-24.41 131.31-24.56L131.31-24.56Q130.6-25.27 129.85-25.95 129.09-26.64 128.26-27.16 127.43-27.69 126.49-28 125.55-28.32 124.45-28.32L124.45-28.32Q123.79-28.32 123.13-28.21 122.47-28.1 121.94-27.81 121.4-27.51 121.07-27 120.74-26.49 120.74-25.71L120.74-25.71Q120.74-24.88 120.95-24.27 121.15-23.66 121.98-23.12L121.98-23.12 127.84-19.14Q129.46-17.99 130.46-16.86 131.46-15.72 132.02-14.6 132.58-13.48 132.79-12.39 133-11.3 133-10.25L133-10.25Q133-8.54 132.43-7.03 131.87-5.52 130.9-4.24 129.92-2.95 128.61-1.94 127.31-0.93 125.82-0.21 124.33 0.51 122.73 0.89 121.13 1.27 119.59 1.27L119.59 1.27Q118.4 1.27 117.24 1.23 116.08 1.2 114.98 1.04 113.88 0.88 112.85 0.55 111.83 0.22 110.9-0.37L110.9-0.37ZM163.61-27.66L161.09-4.91Q161.07-4.81 161.07-4.72 161.07-4.64 161.07-4.57L161.07-4.57Q161.07-3.96 161.26-3.55 161.46-3.15 161.69-2.89 161.92-2.64 162.12-2.48 162.31-2.32 162.31-2.2L162.31-2.2Q162.31-1.86 161.58-1.56L161.58-1.56 155.01 1.25Q154.99 1.27 154.84 1.27L154.84 1.27Q154.65 1.27 154.45 0.93 154.26 0.59 154.07 0.06 153.89-0.46 153.73-1.06 153.57-1.66 153.45-2.17L153.45-2.17Q151.91-0.39 150.13 0.44 148.35 1.27 146.59 1.27L146.59 1.27Q144.54 1.27 142.59 0.37 140.63-0.54 139.12-2.21 137.61-3.88 136.69-6.25 135.78-8.62 135.78-11.57L135.78-11.57Q135.78-15.06 136.79-17.94 137.8-20.83 139.54-22.9 141.27-24.98 143.58-26.11 145.88-27.25 148.47-27.25L148.47-27.25Q150.3-27.25 151.94-26.5 153.57-25.76 155.04-24.58L155.04-24.58Q155.19-25.32 155.21-25.76 155.23-26.2 155.32-26.44 155.4-26.68 155.65-26.77 155.89-26.86 156.45-26.9L156.45-26.9Q158.21-27.15 159.96-27.36 161.7-27.56 163.61-27.66L163.61-27.66ZM152.77-6.88L153.79-14.11Q154.04-15.5 154.12-16.74 154.21-17.97 154.26-18.99L154.26-18.99Q153.87-19.29 153.42-19.6 152.96-19.92 152.44-20.2 151.91-20.48 151.34-20.65 150.77-20.83 150.13-20.83L150.13-20.83Q148.81-20.83 147.92-19.97 147.03-19.12 146.48-17.87 145.93-16.63 145.7-15.23 145.47-13.84 145.47-12.77L145.47-12.77Q145.47-8.91 146.48-7.12 147.49-5.32 149.3-5.32L149.3-5.32Q150.03-5.32 150.94-5.74 151.84-6.15 152.77-6.88L152.77-6.88ZM177.62-17.41L177.55-17.04Q177.4-14.7 177.29-13.23 177.18-11.77 177.11-10.85 177.03-9.94 176.98-9.41 176.94-8.89 176.91-8.42L176.91-8.42Q177.47-6.96 178.57-6.04 179.67-5.13 181.21-5.13L181.21-5.13Q182.55-5.13 183.56-5.97 184.58-6.81 185.25-8.15 185.92-9.5 186.26-11.16 186.6-12.82 186.6-14.45L186.6-14.45Q186.6-15.8 186.37-16.94 186.14-18.09 185.68-18.93 185.21-19.78 184.52-20.25 183.82-20.73 182.87-20.73L182.87-20.73Q182.09-20.73 181.32-20.42 180.55-20.12 179.84-19.64 179.13-19.17 178.56-18.57 177.99-17.97 177.62-17.41L177.62-17.41ZM178.03-24.19L178.03-24.19Q180.09-25.59 182.33-26.42 184.58-27.25 187.02-27.25L187.02-27.25Q189.31-27.25 190.99-26.31 192.66-25.37 193.76-23.77 194.86-22.17 195.38-20.09 195.91-18.02 195.91-15.75L195.91-15.75Q195.91-13.77 195.51-11.74 195.12-9.72 194.37-7.82 193.61-5.93 192.49-4.27 191.36-2.61 189.91-1.38 188.46-0.15 186.68 0.56 184.89 1.27 182.82 1.27L182.82 1.27Q180.99 1.27 179.32 0.54 177.64-0.2 176.18-1.37L176.18-1.37Q176.18-1.25 176.12-0.48 176.06 0.29 175.96 1.39 175.86 2.49 175.74 3.75 175.62 5 175.52 6.1 175.42 7.2 175.36 7.97 175.3 8.74 175.3 8.86L175.3 8.86Q175.3 9.06 175.31 9.19 175.32 9.33 175.32 9.45L175.32 9.45Q175.32 9.64 175.14 9.78 174.96 9.91 174.32 10.08L174.32 10.08 167.9 11.72Q167.63 11.79 167.19 11.95 166.75 12.11 166.34 12.11L166.34 12.11Q166 12.11 165.74 11.94 165.49 11.77 165.49 11.3L165.49 11.3 168.46-24.44Q168.54-25.24 168.65-25.55 168.76-25.85 169.2-25.95L169.2-25.95Q171.42-26.39 173.76-26.84 176.11-27.29 178.33-28L178.33-28Q178.52-28 178.56-27.94 178.6-27.88 178.6-27.76L178.6-27.76Q178.6-27.71 178.58-27.61 178.57-27.51 178.51-27.17 178.45-26.83 178.34-26.14 178.23-25.44 178.03-24.19ZM199.61-10.35L199.61-10.35Q199.93-13.7 200.25-16.97 200.57-20.24 200.81-23.68L200.81-23.68Q200.86-24.49 200.97-24.79 201.08-25.1 201.52-25.2L201.52-25.2Q203.59-25.61 205.86-26.06 208.13-26.51 210.26-27.22L210.26-27.22Q210.33-27.25 210.48-27.25L210.48-27.25Q210.75-27.25 210.75-27.05L210.75-27.05 208.55-3.27Q208.48-2.47 208.38-2.16 208.28-1.86 207.84-1.76L207.84-1.76Q205.77-1.12 203.64-0.34 201.52 0.44 199.15 1.25L199.15 1.25Q199.08 1.27 198.93 1.27L198.93 1.27Q198.66 1.27 198.66 1.03L198.66 1.03Q198.66 1 198.71 0.37 198.76-0.27 198.84-1.27 198.93-2.27 199.03-3.52 199.13-4.76 199.24-6.01 199.35-7.25 199.44-8.4 199.54-9.55 199.61-10.35ZM201.44-29.83L201.44-29.83Q201.52-30.88 201.55-31.45 201.59-32.01 201.62-32.29 201.64-32.57 201.64-32.64 201.64-32.71 201.65-32.75 201.66-32.79 201.68-32.9 201.69-33.01 201.71-33.36 201.74-33.72 201.79-34.4 201.84-35.08 201.93-36.28L201.93-36.28Q201.98-37.08 202.09-37.39 202.2-37.7 202.64-37.79L202.64-37.79Q204.72-38.21 206.99-38.66 209.26-39.11 211.38-39.82L211.38-39.82Q211.45-39.84 211.6-39.84L211.6-39.84Q211.67-39.7 211.8-39.65L211.8-39.65 211.87-39.6 211.33-32.91Q211.26-32.1 211.15-31.79 211.04-31.47 210.62-31.4L210.62-31.4Q208.55-31.01 206.43-30.54 204.3-30.08 201.93-29.61L201.93-29.61Q201.86-29.59 201.71-29.59L201.71-29.59Q201.44-29.59 201.44-29.83ZM235.4-27.44L233.89-19.87Q233.38-19.92 232.74-19.98 232.11-20.04 231.4-20.04L231.4-20.04Q230.32-20.04 229.21-19.86 228.1-19.68 227.15-19.14 226.2-18.6 225.51-17.66 224.83-16.72 224.64-15.23L224.64-15.23Q224.46-13.43 224.35-12.27 224.25-11.11 224.2-10.36 224.15-9.62 224.11-9.17 224.07-8.72 224.05-8.33L224.05-8.33Q224.05-8.23 224.01-7.79 223.98-7.35 223.9-6.76 223.83-6.18 223.77-5.49 223.71-4.81 223.63-4.22 223.56-3.64 223.52-3.2 223.49-2.76 223.49-2.66L223.49-2.66Q223.49-2.47 223.5-2.33 223.51-2.2 223.51-2.08L223.51-2.08Q223.51-1.88 223.33-1.75 223.15-1.61 222.51-1.44L222.51-1.44 216.04 0.88Q215.77 0.98 215.33 1.12 214.89 1.27 214.48 1.27L214.48 1.27Q214.14 1.27 213.88 1.1 213.62 0.93 213.62 0.51L213.62 0.51 215.72-23.68Q215.8-24.49 215.91-24.79 216.02-25.1 216.46-25.2L216.46-25.2Q218.68-25.63 221.05-26.09 223.42-26.54 225.64-27.25L225.64-27.25Q225.83-27.25 225.87-27.19 225.91-27.12 225.91-27L225.91-27Q225.91-26.95 225.89-26.86 225.88-26.76 225.82-26.42 225.76-26.07 225.65-25.38 225.54-24.68 225.34-23.44L225.34-23.44Q226.47-24.32 227.82-25.05 229.18-25.78 230.54-26.31 231.91-26.83 233.18-27.14 234.45-27.44 235.4-27.44L235.4-27.44Z" opacity="1" transform="matrix(1,0,0,1,0,0)" fill="#434853" class="undefined-text-0" data-fill-palette-color="primary" id="text-0"></path></svg></g></svg></g><g transform="matrix(1,0,0,1,163.310208,109.40620200919334)"><svg viewBox="0 0 232.209792 35.047569283248734" height="35.047569283248734" width="232.209792"><g transform="matrix(1,0,0,1,0,0)"><svg width="232.209792" viewBox="4.55 -35.25 295.46999999999997 44.6" height="35.047569283248734" data-palette-color="#434853"><path d="M4.55 0L4.55-35.25 17.9-35.25Q23.4-35.25 26.43-32.6 29.45-29.95 29.45-25.1L29.45-25.1Q29.45-20.2 26.4-17.53 23.35-14.85 17.9-14.85L17.9-14.85 7.65-14.85 7.65 0 4.55 0ZM7.65-17.5L17.7-17.5Q26.35-17.5 26.35-25.1L26.35-25.1Q26.35-32.6 17.7-32.6L17.7-32.6 7.65-32.6 7.65-17.5ZM55.1-13.1L55.1-11.75 36.75-11.75Q36.9-7.2 39.15-4.78 41.4-2.35 45.55-2.35L45.55-2.35Q49.95-2.35 53.5-5.35L53.5-5.35 54.7-2.95Q53.1-1.45 50.62-0.55 48.15 0.35 45.55 0.35L45.55 0.35Q40 0.35 36.8-3 33.6-6.35 33.6-12.2L33.6-12.2Q33.6-15.95 35.02-18.82 36.45-21.7 39.02-23.28 41.6-24.85 44.95-24.85L44.95-24.85Q49.7-24.85 52.4-21.75 55.1-18.65 55.1-13.1L55.1-13.1ZM44.95-22.35Q41.45-22.35 39.35-20.15 37.25-17.95 36.85-14L36.85-14 52.3-14Q52.2-18 50.3-20.18 48.4-22.35 44.95-22.35L44.95-22.35ZM73.9-24.85L74.15-22.2 72-22Q68.05-21.6 66.27-19.45 64.5-17.3 64.5-14.2L64.5-14.2 64.5 0 61.45 0 61.45-24.25 64.45-24.25 64.45-20Q65.55-22.25 67.57-23.38 69.6-24.5 72.6-24.75L72.6-24.75 73.9-24.85ZM86.04 0.35Q80.29 0.35 76.64-2.9L76.64-2.9 77.79-5.25Q79.74-3.65 81.69-2.98 83.64-2.3 86.19-2.3L86.19-2.3Q89.14-2.3 90.72-3.35 92.29-4.4 92.29-6.3L92.29-6.3Q92.29-7.9 91.24-8.88 90.19-9.85 87.89-10.35L87.89-10.35 83.79-11.3Q80.84-12 79.17-13.73 77.49-15.45 77.49-17.8L77.49-17.8Q77.49-20.95 79.94-22.9 82.39-24.85 86.49-24.85L86.49-24.85Q89.04-24.85 91.27-24.03 93.49-23.2 94.94-21.65L94.94-21.65 93.79-19.3Q92.09-20.8 90.32-21.5 88.54-22.2 86.49-22.2L86.49-22.2Q83.74-22.2 82.19-21.1 80.64-20 80.64-18.05L80.64-18.05Q80.64-16.45 81.62-15.45 82.59-14.45 84.64-13.95L84.64-13.95 88.79-12.95Q95.39-11.45 95.39-6.45L95.39-6.45Q95.39-3.35 92.87-1.5 90.34 0.35 86.04 0.35L86.04 0.35ZM111.69 0.35Q108.34 0.35 105.82-1.2 103.29-2.75 101.89-5.6 100.49-8.45 100.49-12.25L100.49-12.25Q100.49-16.05 101.89-18.9 103.29-21.75 105.82-23.3 108.34-24.85 111.69-24.85L111.69-24.85Q114.99-24.85 117.54-23.3 120.09-21.75 121.47-18.9 122.84-16.05 122.84-12.25L122.84-12.25Q122.84-8.45 121.47-5.6 120.09-2.75 117.54-1.2 114.99 0.35 111.69 0.35L111.69 0.35ZM111.64-2.35Q115.49-2.35 117.59-4.9 119.69-7.45 119.69-12.25L119.69-12.25Q119.69-16.95 117.57-19.58 115.44-22.2 111.69-22.2L111.69-22.2Q107.89-22.2 105.79-19.58 103.69-16.95 103.69-12.25L103.69-12.25Q103.69-7.45 105.74-4.9 107.79-2.35 111.64-2.35L111.64-2.35ZM140.64-24.85Q149.39-24.85 149.39-15.45L149.39-15.45 149.39 0 146.34 0 146.34-15.25Q146.34-18.85 144.89-20.5 143.44-22.15 140.29-22.15L140.29-22.15Q136.69-22.15 134.51-19.95 132.34-17.75 132.34-14.05L132.34-14.05 132.34 0 129.29 0 129.29-24.25 132.29-24.25 132.29-20.1Q133.44-22.4 135.61-23.63 137.79-24.85 140.64-24.85L140.64-24.85ZM166.94-24.85Q171.34-24.85 173.51-22.55 175.69-20.25 175.69-15.6L175.69-15.6 175.69 0 172.69 0 172.69-4.35Q171.64-2.1 169.64-0.88 167.64 0.35 165.04 0.35L165.04 0.35Q162.69 0.35 160.74-0.6 158.79-1.55 157.66-3.25 156.54-4.95 156.54-7L156.54-7Q156.54-9.7 157.94-11.2 159.34-12.7 162.59-13.35 165.84-14 171.64-14L171.64-14 172.69-14 172.69-15.85Q172.69-19.15 171.34-20.68 169.99-22.2 167.09-22.2L167.09-22.2Q164.89-22.2 162.86-21.58 160.84-20.95 158.69-19.55L158.69-19.55 157.54-21.9Q159.39-23.25 161.94-24.05 164.49-24.85 166.94-24.85L166.94-24.85ZM165.29-2.3Q168.54-2.3 170.61-4.5 172.69-6.7 172.69-10.1L172.69-10.1 172.69-11.75 171.74-11.75Q166.94-11.75 164.39-11.35 161.84-10.95 160.79-9.98 159.74-9 159.74-7.15L159.74-7.15Q159.74-5.05 161.34-3.68 162.94-2.3 165.29-2.3L165.29-2.3ZM186.68 0L183.63 0 183.63-35.25 186.68-35.25 186.68 0ZM227.18-18.05Q230.23-17.3 231.9-15.08 233.58-12.85 233.58-9.55L233.58-9.55Q233.58-4.9 230.55-2.45 227.53 0 221.98 0L221.98 0 207.88 0 207.88-35.25 221.48-35.25Q226.88-35.25 229.83-32.85 232.78-30.45 232.78-26L232.78-26Q232.78-23.15 231.3-21.1 229.83-19.05 227.18-18.05L227.18-18.05ZM210.93-32.6L210.93-19.25 221.03-19.25Q225.28-19.25 227.48-21 229.68-22.75 229.68-26.05L229.68-26.05Q229.68-32.6 221.03-32.6L221.03-32.6 210.93-32.6ZM221.78-2.65Q226.23-2.65 228.35-4.33 230.48-6 230.48-9.45L230.48-9.45Q230.48-16.55 221.78-16.55L221.78-16.55 210.93-16.55 210.93-2.65 221.78-2.65ZM243.88 0L240.83 0 240.83-35.25 243.88-35.25 243.88 0ZM261.57 0.35Q258.22 0.35 255.7-1.2 253.17-2.75 251.77-5.6 250.37-8.45 250.37-12.25L250.37-12.25Q250.37-16.05 251.77-18.9 253.17-21.75 255.7-23.3 258.22-24.85 261.57-24.85L261.57-24.85Q264.87-24.85 267.42-23.3 269.97-21.75 271.35-18.9 272.72-16.05 272.72-12.25L272.72-12.25Q272.72-8.45 271.35-5.6 269.97-2.75 267.42-1.2 264.87 0.35 261.57 0.35L261.57 0.35ZM261.52-2.35Q265.37-2.35 267.47-4.9 269.57-7.45 269.57-12.25L269.57-12.25Q269.57-16.95 267.45-19.58 265.32-22.2 261.57-22.2L261.57-22.2Q257.77-22.2 255.67-19.58 253.57-16.95 253.57-12.25L253.57-12.25Q253.57-7.45 255.62-4.9 257.67-2.35 261.52-2.35L261.52-2.35ZM296.97-24.25L300.02-24.25 300.02-1.4Q300.02 3.9 297.4 6.63 294.77 9.35 289.62 9.35L289.62 9.35Q283.52 9.35 279.12 6L279.12 6 280.32 3.6Q282.77 5.3 284.85 5.98 286.92 6.65 289.67 6.65L289.67 6.65Q293.32 6.65 295.17 4.7 297.02 2.75 297.02-1.1L297.02-1.1 297.02-5.85Q295.97-3.4 293.8-2.08 291.62-0.75 288.52-0.75L288.52-0.75Q285.32-0.75 282.85-2.25 280.37-3.75 279-6.5 277.62-9.25 277.62-12.8L277.62-12.8Q277.62-16.35 279-19.1 280.37-21.85 282.85-23.35 285.32-24.85 288.52-24.85L288.52-24.85Q291.57-24.85 293.72-23.58 295.87-22.3 296.97-19.85L296.97-19.85 296.97-24.25ZM288.92-3.45Q292.72-3.45 294.85-5.95 296.97-8.45 296.97-12.8L296.97-12.8Q296.97-17.15 294.82-19.68 292.67-22.2 288.92-22.2L288.92-22.2Q285.12-22.2 282.97-19.7 280.82-17.2 280.82-12.8L280.82-12.8Q280.82-8.4 282.97-5.93 285.12-3.45 288.92-3.45L288.92-3.45Z" opacity="1" transform="matrix(1,0,0,1,0,0)" fill="#434853" class="undefined-text-1" data-fill-palette-color="secondary" id="text-1"></path></svg></g></svg></g></svg></g></svg></g></svg></g><defs></defs></svg><rect width="395.52" height="144.45377129244207" fill="none" stroke="none" visibility="hidden"></rect></g></svg></g></svg>